<svg width="234" height="206" viewBox="0 0 234 206" fill="none" xmlns="http://www.w3.org/2000/svg">
<path d="M6 6H34" stroke="white" stroke-width="12" stroke-linecap="round"/>
<path d="M34 6L34 157" stroke="white" stroke-width="12" stroke-linecap="round"/>
<path d="M34 157H139" stroke="white" stroke-width="12" stroke-linecap="round"/>
<path d="M82 128H139.5H179.569C183.167 128 186.42 125.857 187.839 122.55L227.113 31.0498C229.663 25.1105 225.306 18.5 218.843 18.5H37.5" stroke="white" stroke-width="12" stroke-linecap="round"/>
<path d="M67.5 190C67.5 196.803 61.782 202.5 54.5 202.5C47.218 202.5 41.5 196.803 41.5 190C41.5 183.197 47.218 177.5 54.5 177.5C61.782 177.5 67.5 183.197 67.5 190Z" stroke="white" stroke-width="7"/>
<path d="M140.5 190C140.5 196.803 134.782 202.5 127.5 202.5C120.218 202.5 114.5 196.803 114.5 190C114.5 183.197 120.218 177.5 127.5 177.5C134.782 177.5 140.5 183.197 140.5 190Z" stroke="white" stroke-width="7"/>
</svg>
